<svg width="38" height="20" viewBox="0 0 38 20" fill="none" xmlns="http://www.w3.org/2000/svg">
<g id="Group">
<path id="Vector" d="M12.6065 4.78915C7.43508 3.56992 3.82109 6.46724 1.59812 3.2094C1.59147 3.19628 1.58481 3.18972 1.57816 3.17662C1.51826 3.08485 1.59812 2.95375 1.70461 2.97996C6.28367 4.055 7.0291 3.38638 8.95257 3.6158C10.7296 3.82556 12.6065 4.78915 12.6065 4.78915Z" fill="#16191D"/>
<path id="Vector_2" d="M13.5183 5.60953C8.96578 4.94748 5.73781 8.29708 3.30186 5.72097C3.2952 5.71442 3.28855 5.70131 3.27524 5.69476C3.20869 5.62265 3.25527 5.49155 3.3551 5.4981C7.51486 5.79963 8.49323 5.07858 10.2038 5.00648C11.801 4.94093 13.5183 5.60953 13.5183 5.60953Z" fill="#16191D"/>
<path id="Vector_3" d="M14.3638 6.66525C10.3903 6.13431 8.68654 9.64778 5.46522 7.49774C5.45857 7.49119 5.45191 7.48464 5.4386 7.47153C5.37205 7.41253 5.39202 7.24211 5.48519 7.24211C9.006 7.24866 9.92447 6.44239 11.4088 6.26541C13.4188 6.02942 14.3638 6.66525 14.3638 6.66525Z" fill="#16191D"/>
<path id="Vector_4" d="M16.153 7.82515C14.0764 8.04146 14.4026 9.68021 12.1264 9.31313C11.827 9.26724 11.8935 9.05748 12.0266 9.01816C13.9368 8.48064 13.9368 8.12012 14.6223 7.85136C15.2745 7.60883 16.153 7.82515 16.153 7.82515Z" fill="#16191D"/>
<path id="Vector_5" d="M15.215 7.31909C12.22 7.37809 11.4546 9.49536 8.93214 8.80708C8.5461 8.70219 8.67923 8.41377 8.88555 8.38755C11.7741 7.93527 11.9138 7.51574 12.9853 7.26665C13.9903 7.03067 15.215 7.31909 15.215 7.31909Z" fill="#16191D"/>
<path id="Vector_6" d="M13.5046 4.78323C13.4846 4.816 13.4381 4.82255 13.4048 4.80944C12.7858 4.46203 12.2069 4.05561 11.5414 3.60988C10.9157 3.19691 9.57122 2.63318 6.77587 2.76428C5.44474 2.82983 3.42145 3.09859 1.33158 1.68926C0.825756 1.35495 0.313272 0.784665 0.0470475 0.253718C0.0204268 0.207826 0.00711671 0.148828 0.000461556 0.08983C-0.0061936 0.0308319 0.0603575 -0.0150415 0.120272 0.00461854C5.29168 2.04978 6.76921 1.25008 10.0238 1.99079C11.3615 2.29888 13.0188 4.21295 13.4981 4.69145C13.5246 4.71113 13.5246 4.75045 13.5046 4.78323Z" fill="#16191D"/>
<path id="Vector_7" d="M18.0042 15.9918C17.9442 16.1751 17.9575 16.3916 17.8378 16.5489C17.6913 16.7587 17.332 16.7783 17.1589 16.5882C17.0458 16.49 17.0458 16.3326 17.0058 16.208C16.7463 15.0871 16.4934 13.9661 16.2404 12.8386C16.2139 12.7601 16.2404 12.7076 16.3202 12.6749C16.4468 12.642 16.4601 12.7797 16.4999 12.8585C16.7861 13.6254 17.0523 14.3988 17.3453 15.1657C17.4383 15.428 17.7513 15.3427 17.9575 15.4084C18.1771 15.5459 18.044 15.8016 18.0042 15.9918Z" fill="#16191D"/>
<path id="Vector_8" d="M18.3437 12.8974C18.3704 12.9696 18.3304 13.0547 18.2506 13.0678C18.204 13.0744 18.164 13.0678 18.1508 13.0022C17.9576 12.6221 17.7913 12.2223 17.5916 11.8421C17.3321 11.6257 17.0592 11.4028 16.8995 11.0948C16.6133 10.5966 16.6399 9.94763 16.9594 9.46911C16.9859 9.43633 17.0059 9.39701 17.0327 9.36422C17.0792 9.29869 17.179 9.3118 17.2056 9.39046C17.2256 9.44945 17.2389 9.50843 17.2656 9.56088C17.6249 10.6687 17.9711 11.7896 18.3437 12.8974Z" fill="#16191D"/>
<path id="Vector_9" d="M18.397 7.62088C18.3838 7.91585 18.2707 8.19116 18.1974 8.47303C18.1906 8.49269 18.1841 8.5058 18.1641 8.51235C18.1175 8.53203 18.071 8.49924 18.071 8.45337C18.0775 8.06661 18.2174 7.68643 18.1175 7.30623C17.9712 6.78839 17.6117 6.3361 17.5851 5.78547C17.5717 5.49705 17.645 5.21519 17.705 4.93332C17.4919 4.49414 17.392 3.98939 17.5051 3.51089C17.5251 3.45189 17.5319 3.45189 17.5651 3.49776C17.7715 3.79275 18.0443 4.08773 18.0443 4.47446C18.0177 5.02509 17.7115 5.57571 17.9179 6.12634C18.0843 6.61796 18.4436 7.07681 18.397 7.62088Z" fill="#16191D"/>
<path id="Vector_10" d="M20.1545 5.7209C20.1412 6.44195 19.5023 7.01879 19.5755 7.75296C19.5755 8.03482 19.6486 8.32324 19.6154 8.60511C19.5688 8.85419 19.2826 8.89353 19.0764 8.95253C18.9566 9.00497 18.8235 8.86731 18.8567 8.74932C18.8567 7.89717 18.8567 7.03846 18.8567 6.18631C18.87 5.83234 18.9566 5.45869 19.2028 5.18995C19.3559 5.01296 19.5155 4.83598 19.6819 4.65899C19.7152 4.61965 19.7352 4.57377 19.7286 4.52788C19.7152 4.37057 19.6819 4.23291 19.7552 4.04936C19.8683 3.81994 20.0149 3.68229 20.1678 3.53152C20.1945 3.50531 20.2343 3.51842 20.2411 3.55118C20.3476 4.0166 20.2411 4.52133 20.0214 4.94085C20.0747 5.18995 20.1545 5.45214 20.1545 5.7209Z" fill="#16191D"/>
<path id="Vector_11" d="M28.5592 3.0845C27.654 3.33359 27.2347 3.63511 26.8754 3.91698C26.8754 3.91698 27.694 3.63511 28.872 3.51058C32.2132 3.15006 32.4061 4.37584 36.1466 2.9534C36.273 2.93374 36.3063 3.03206 36.273 3.0845C35.7739 3.93665 35.2214 4.88057 33.1316 4.96578C30.8554 5.05756 29.6708 4.15952 27.5342 4.42828C26.1699 4.5987 25.4644 5.01823 25.0716 5.27388C29.7306 4.3955 29.3445 6.41445 33.9102 5.33943C33.9635 5.32631 34.0235 5.3132 34.0768 5.31975C34.1964 5.33286 34.2432 5.47709 34.1699 5.55575C34.1366 5.59507 34.0901 5.6344 34.0568 5.67372C33.4578 6.30956 32.8254 7.00439 30.6956 6.84708C28.1932 6.66353 28.0335 5.13622 23.2547 6.30301C27.887 6.28335 27.8071 7.77789 31.2947 7.33215C31.4146 7.31904 31.4877 7.46326 31.3946 7.54191C31.3413 7.58779 31.2813 7.62712 31.2347 7.66646C30.709 8.07286 29.9435 8.57104 28.5059 8.28262C25.5109 7.66646 25.8904 6.44722 22.0368 7.11584C25.0383 7.1945 24.8321 8.34162 27.9137 8.62349C27.9137 8.62349 27.9137 8.62349 27.9202 8.62349C28.0866 8.64315 28.1333 8.85946 27.9935 8.95124C27.887 9.02335 27.7671 9.07577 27.654 9.12167C25.4045 9.98037 24.3595 7.20105 21.5975 7.82378C23.5742 7.9942 23.4144 8.6497 25.1982 9.12822C25.3911 9.18066 25.3713 9.43632 25.1582 9.45598C23.0418 9.66574 23.2282 8.26296 21.9302 8.21052C21.5842 8.19741 21.2647 8.38096 21.0916 8.68248C20.5792 9.56085 20.7854 10.3933 20.7521 10.8456C20.8719 11.3176 21.0518 11.7765 21.0583 12.2745C21.0651 12.622 21.0318 12.9826 20.9185 13.3168C20.7056 14.0116 20.4926 14.7066 20.273 15.408C20.2264 15.5521 20.233 15.7094 20.2863 15.8471C20.3661 16.0569 20.4461 16.2601 20.4794 16.483C20.5592 16.8565 20.5059 17.2433 20.3728 17.6038C20.0933 18.279 19.8137 18.9541 19.5342 19.6359C19.4809 19.7604 19.4411 19.8916 19.3478 19.9964C19.2082 20.0227 19.2214 19.8457 19.2347 19.7604C19.5076 17.2367 19.7671 14.713 20.0333 12.1894L20.2464 11.5864C19.8271 11.9403 19.6407 12.4319 19.3678 12.8711C19.3345 12.976 19.1749 12.9956 19.1416 12.8777C19.1681 12.4385 19.228 11.9994 19.2414 11.5601C19.2813 11.1144 19.2747 10.6621 19.4278 10.236C19.6007 9.80339 19.9335 9.45598 20.1932 9.08235C20.619 8.54483 20.9385 7.9352 21.1582 7.29281C21.2913 6.89952 21.5709 6.55211 21.9302 6.33579C23.1749 5.5623 23.9002 4.89368 25.0783 4.01531C26.1632 3.20904 27.0018 2.57975 27.4811 2.38967C29.6708 1.50473 34.0701 2.45522 37.8371 0.0429775C37.9302 -0.00946721 38.0501 0.0954046 37.977 0.246168C37.6242 1.12455 37.2049 1.68828 36.2064 2.17335C33.3313 3.56958 30.0301 2.67809 28.5592 3.0845Z" fill="#16191D"/>
<path id="Vector_12" d="M19.8274 4.6003C19.8274 4.6003 19.581 4.17422 18.982 4.12178C18.5294 4.08246 18.3232 4.23322 18.3232 4.23322C18.3232 4.23322 18.8689 4.0759 19.295 4.44953C19.7208 4.82316 19.4879 5.14437 19.4879 5.14437C19.4879 5.14437 19.9538 4.87561 19.8274 4.6003Z" fill="#16191D"/>
<path id="Vector_13" d="M19.8013 4.54147C19.8013 4.54147 19.4886 4.21373 18.8496 4.1875C18.8496 4.1875 19.2289 4.27927 19.2756 4.48247C19.3555 4.86923 19.0094 5.38707 18.9429 5.63617C18.8896 5.85903 19.8013 4.54147 19.8013 4.54147Z" fill="#16191D"/>
</g>
</svg>
