<svg width="32" height="32" viewBox="0 0 32 32" fill="none" xmlns="http://www.w3.org/2000/svg">
<g id="Group">
<g id="Group_2">
<path id="Vector" d="M26.324 24.06L21.216 22.7827L20.9213 21.6027C24.4453 21.0094 26.2586 19.9534 26.3386 19.9067C26.5279 19.796 26.6453 19.5947 26.6613 19.376C26.676 19.1573 26.5786 18.9427 26.4066 18.8053C26.3827 18.7867 24 16.8187 24 10C24 4.24931 22.6547 1.33331 20 1.33331H19.6067C18.6493 0.408 17.9307 0 16 0C13.4947 0 8 2.51869 8 10C8 16.8187 5.61731 18.7867 5.6 18.8C5.42269 18.9333 5.32269 19.1453 5.33331 19.3667C5.34531 19.5894 5.46531 19.7894 5.656 19.904C5.736 19.952 7.532 21.0133 11.0773 21.6053L10.7826 22.7826L5.67469 24.06C2.33331 24.896 0 27.8853 0 31.3333C0 31.7013 0.298687 32 0.666687 32H31.3334C31.7014 32 32.0001 31.6987 32.0001 31.3307C32 27.8853 29.6667 24.896 26.324 24.06Z" fill="#388FF3"/>
</g>
</g>
</svg>
